<svg width="24" height="25" viewBox="0 0 24 25" fill="none" xmlns="http://www.w3.org/2000/svg">
<path d="M10 5.67199C10 4.28199 8.423 3.17899 6.5 3.49999C3.677 3.96999 2.387 9.50599 2.5 10.5C2.58 11.203 4.225 12.222 6.156 11.5C7.417 11.028 8.116 10.05 8.5 8.99999" stroke="black" stroke-width="2" stroke-linecap="round" stroke-linejoin="round"/>
<path d="M14.267 5.67199C14.267 4.28199 15.844 3.17899 17.767 3.49999C20.59 3.96999 21.88 9.50599 21.767 10.5C21.687 11.203 20.042 12.222 18.111 11.5C16.85 11.028 16.256 10.05 15.872 8.99999" stroke="black" stroke-width="2" stroke-linecap="round" stroke-linejoin="round"/>
<path d="M8 14.5V15" stroke="black" stroke-width="2" stroke-linecap="round" stroke-linejoin="round"/>
<path d="M16 14.5V15" stroke="black" stroke-width="2" stroke-linecap="round" stroke-linejoin="round"/>
<path d="M11.25 16.75H12.75L12 17.5L11.25 16.75Z" stroke="black" stroke-width="2" stroke-linecap="round" stroke-linejoin="round"/>
<path d="M4.42 11.747C4.14013 12.8277 3.99899 13.9397 4 15.056C4 19.228 7.582 21.5 12 21.5C16.418 21.5 20 19.228 20 15.056C20 13.995 19.838 12.856 19.507 11.747M10.264 5.66503C10.8358 5.55269 11.4173 5.49742 12 5.50003C12.78 5.50003 13.5 5.60803 14.161 5.80603" stroke="black" stroke-width="2" stroke-linecap="round" stroke-linejoin="round"/>
</svg>
