<svg width="181" height="133" viewBox="0 0 181 133" fill="none" xmlns="http://www.w3.org/2000/svg">
<path d="M39.8409 20.0324C39.6819 18.0453 38.9368 16.4953 37.6054 15.3826C36.2939 14.2698 34.2969 13.7134 31.6143 13.7134C29.9054 13.7134 28.5045 13.922 27.4116 14.3393C26.3385 14.7368 25.5437 15.2832 25.027 15.9787C24.5104 16.6742 24.2421 17.469 24.2223 18.3632C24.1825 19.0984 24.3117 19.7641 24.6097 20.3603C24.9277 20.9365 25.4245 21.4631 26.1001 21.94C26.7757 22.397 27.6401 22.8143 28.6932 23.1919C29.7464 23.5694 30.9983 23.9072 32.4489 24.2053L37.4564 25.2783C40.8344 25.9937 43.7257 26.9376 46.1301 28.11C48.5345 29.2823 50.5017 30.6634 52.0318 32.2531C53.5618 33.8229 54.6846 35.5914 55.3999 37.5586C56.1351 39.5259 56.5127 41.6719 56.5326 43.9968C56.5127 48.0108 55.5092 51.4087 53.5221 54.1907C51.535 56.9726 48.6934 59.0889 44.9974 60.5395C41.3213 61.9901 36.9 62.7154 31.7335 62.7154C26.4279 62.7154 21.798 61.9305 17.8437 60.3606C13.9092 58.7908 10.8491 56.3765 8.66324 53.1176C6.4973 49.8389 5.40439 45.6461 5.38452 40.5393H21.1224C21.2217 42.4072 21.6887 43.977 22.5233 45.2487C23.3579 46.5205 24.5303 47.4842 26.0405 48.14C27.5705 48.7957 29.3887 49.1236 31.4951 49.1236C33.2636 49.1236 34.744 48.905 35.9362 48.4678C37.1285 48.0307 38.0326 47.4246 38.6486 46.6496C39.2646 45.8747 39.5826 44.9904 39.6024 43.9968C39.5826 43.0629 39.2746 42.2482 38.6784 41.5527C38.1022 40.8374 37.1484 40.2015 35.817 39.6451C34.4856 39.0688 32.6873 38.5323 30.422 38.0355L24.3415 36.724C18.9366 35.5517 14.6742 33.5944 11.5545 30.8522C8.4546 28.0901 6.91459 24.3245 6.93446 19.5555C6.91459 15.6806 7.94789 12.2926 10.0343 9.39145C12.1407 6.4704 15.0518 4.19517 18.7677 2.56574C22.5034 0.93632 26.7856 0.121608 31.6143 0.121608C36.5423 0.121608 40.8046 0.946256 44.4013 2.59555C47.998 4.24485 50.77 6.56976 52.7173 9.57029C54.6846 12.5509 55.6781 16.0383 55.698 20.0324H39.8409Z" fill="#252525"/>
<path d="M159.841 20.0324C159.682 18.0453 158.937 16.4953 157.605 15.3826C156.294 14.2698 154.297 13.7134 151.614 13.7134C149.905 13.7134 148.504 13.922 147.412 14.3393C146.339 14.7368 145.544 15.2832 145.027 15.9787C144.51 16.6742 144.242 17.469 144.222 18.3632C144.183 19.0984 144.312 19.7641 144.61 20.3603C144.928 20.9365 145.424 21.4631 146.1 21.94C146.776 22.397 147.64 22.8143 148.693 23.1919C149.746 23.5694 150.998 23.9072 152.449 24.2053L157.456 25.2783C160.834 25.9937 163.726 26.9376 166.13 28.11C168.534 29.2823 170.502 30.6634 172.032 32.2531C173.562 33.8229 174.685 35.5914 175.4 37.5586C176.135 39.5259 176.513 41.6719 176.533 43.9968C176.513 48.0108 175.509 51.4087 173.522 54.1907C171.535 56.9726 168.693 59.0889 164.997 60.5395C161.321 61.9901 156.9 62.7154 151.734 62.7154C146.428 62.7154 141.798 61.9305 137.844 60.3606C133.909 58.7908 130.849 56.3765 128.663 53.1176C126.497 49.8389 125.404 45.6461 125.385 40.5393H141.122C141.222 42.4072 141.689 43.977 142.523 45.2487C143.358 46.5205 144.53 47.4842 146.04 48.14C147.571 48.7957 149.389 49.1236 151.495 49.1236C153.264 49.1236 154.744 48.905 155.936 48.4678C157.128 48.0307 158.033 47.4246 158.649 46.6496C159.265 45.8747 159.583 44.9904 159.602 43.9968C159.583 43.0629 159.275 42.2482 158.678 41.5527C158.102 40.8374 157.148 40.2015 155.817 39.6451C154.486 39.0688 152.687 38.5323 150.422 38.0355L144.341 36.724C138.937 35.5517 134.674 33.5944 131.554 30.8522C128.455 28.0901 126.915 24.3245 126.934 19.5555C126.915 15.6806 127.948 12.2926 130.034 9.39145C132.141 6.4704 135.052 4.19517 138.768 2.56574C142.503 0.93632 146.786 0.121608 151.614 0.121608C156.542 0.121608 160.805 0.946256 164.401 2.59555C167.998 4.24485 170.77 6.56976 172.717 9.57029C174.685 12.5509 175.678 16.0383 175.698 20.0324H159.841Z" fill="#252525"/>
<path d="M3.93446 133V71.9562H30.2835C34.814 71.9562 38.7783 72.8504 42.1763 74.6388C45.5742 76.4272 48.2171 78.9409 50.1048 82.1798C51.9926 85.4188 52.9364 89.2042 52.9364 93.5361C52.9364 97.9078 51.9627 101.693 50.0154 104.892C48.0879 108.092 45.3755 110.556 41.8782 112.284C38.4008 114.013 34.3371 114.878 29.6873 114.878H13.9495V102.001H26.349C28.2963 102.001 29.9556 101.663 31.3267 100.988C32.7177 100.292 33.7808 99.3087 34.516 98.0369C35.2711 96.7652 35.6486 95.2649 35.6486 93.5361C35.6486 91.7875 35.2711 90.2972 34.516 89.0652C33.7808 87.8133 32.7177 86.8595 31.3267 86.2037C29.9556 85.5281 28.2963 85.1903 26.349 85.1903H20.5069V133H3.93446ZM66.5711 133V71.9562H110.566V85.3095H83.1436V95.8014H108.3V109.155H83.1436V119.647H110.446V133H66.5711ZM124.67 85.3095V71.9562H177.725V85.3095H159.365V133H143.031V85.3095H124.67Z" fill="#252525"/>
<path d="M121.454 31.7988C121.454 48.4687 107.94 61.9823 91.2701 61.9823C74.6002 61.9823 61.0865 48.4687 61.0865 31.7988C61.0865 15.1289 74.6002 1.61523 91.2701 1.61523C98.6534 1.61523 105.415 4.26474 110.66 8.66616L114.795 12.8857C118.961 18.0609 121.454 24.6371 121.454 31.7988Z" fill="#FF0000" stroke="#FF0000" stroke-width="2.32201"/>
<circle cx="91.2716" cy="31.8002" r="17.6439" fill="white" stroke="#FF0000" stroke-width="2.32201"/>
<rect x="99.0927" y="18.6397" width="17.902" height="6.29704" rx="3.14852" transform="rotate(-43.8278 99.0927 18.6397)" fill="white" stroke="white" stroke-width="2.32201"/>
<rect x="1.64157" y="-0.0335898" width="17.902" height="6.29704" rx="3.14852" transform="matrix(0.721425 0.692493 0.692493 -0.721425 97.9317 44.047)" fill="white" stroke="white" stroke-width="2.32201"/>
<rect x="78.5584" y="23.1778" width="17.902" height="6.29704" rx="3.14852" transform="rotate(-133.828 78.5584 23.1778)" fill="white" stroke="white" stroke-width="2.32201"/>
<rect x="0.0335897" y="1.64157" width="17.902" height="6.29704" rx="3.14852" transform="matrix(-0.692493 0.721425 0.721425 0.692493 77.3974 39.5049)" fill="white" stroke="white" stroke-width="2.32201"/>
</svg>
