<svg width="219" height="40" viewBox="0 0 219 40" fill="none" xmlns="http://www.w3.org/2000/svg">
  <path d="M22.4857 13.3852C22.3887 12.1724 21.9339 11.2264 21.1213 10.5472C20.3208 9.86803 19.1019 9.52844 17.4646 9.52844C16.4216 9.52844 15.5666 9.65579 14.8995 9.91048C14.2446 10.153 13.7595 10.4866 13.4441 10.9111C13.1288 11.3355 12.9651 11.8207 12.9529 12.3664C12.9287 12.8152 13.0075 13.2215 13.1894 13.5853C13.3835 13.937 13.6867 14.2584 14.099 14.5495C14.5114 14.8285 15.039 15.0832 15.6818 15.3136C16.3246 15.544 17.0887 15.7502 17.974 15.9321L21.0303 16.5871C23.0921 17.0237 24.8568 17.5998 26.3243 18.3153C27.7918 19.0309 28.9925 19.8738 29.9264 20.8441C30.8602 21.8022 31.5455 22.8816 31.9821 24.0823C32.4308 25.283 32.6613 26.5928 32.6734 28.0118C32.6613 30.4617 32.0488 32.5357 30.836 34.2336C29.6232 35.9316 27.8888 37.2232 25.633 38.1086C23.3893 38.9939 20.6907 39.4366 17.5374 39.4366C14.2992 39.4366 11.4733 38.9576 9.05978 37.9994C6.65839 37.0413 4.79064 35.5677 3.45654 33.5787C2.13457 31.5775 1.46751 29.0185 1.45539 25.9015H11.0609C11.1216 27.0416 11.4066 27.9997 11.916 28.7759C12.4254 29.5521 13.1409 30.1403 14.0627 30.5406C14.9965 30.9408 16.1063 31.1409 17.3919 31.1409C18.4713 31.1409 19.3748 31.0075 20.1025 30.7407C20.8302 30.4739 21.382 30.104 21.758 29.631C22.134 29.158 22.328 28.6182 22.3402 28.0118C22.328 27.4418 22.1401 26.9446 21.7762 26.5201C21.4245 26.0835 20.8423 25.6953 20.0297 25.3558C19.2172 25.004 18.1196 24.6766 16.7369 24.3734L13.0257 23.5729C9.72683 22.8573 7.12533 21.6627 5.2212 19.989C3.32919 18.3032 2.38926 16.0049 2.40139 13.0941C2.38926 10.7291 3.01993 8.66127 4.29339 6.89056C5.57898 5.10771 7.35576 3.71903 9.62374 2.72451C11.9038 1.73 14.5175 1.23274 17.4646 1.23274C20.4724 1.23274 23.0739 1.73606 25.2691 2.74271C27.4643 3.74935 29.1562 5.16835 30.3448 6.99971C31.5455 8.81894 32.1519 10.9474 32.164 13.3852H22.4857Z" fill="#252525"/>
  <path d="M96.4857 13.3852C96.3887 12.1724 95.9339 11.2264 95.1213 10.5472C94.3208 9.86803 93.1019 9.52844 91.4646 9.52844C90.4216 9.52844 89.5666 9.65579 88.8995 9.91048C88.2446 10.153 87.7595 10.4866 87.4441 10.9111C87.1288 11.3355 86.9651 11.8207 86.9529 12.3664C86.9287 12.8152 87.0075 13.2215 87.1894 13.5853C87.3835 13.937 87.6867 14.2584 88.099 14.5495C88.5114 14.8285 89.039 15.0832 89.6818 15.3136C90.3246 15.544 91.0887 15.7502 91.974 15.9321L95.0303 16.5871C97.0921 17.0237 98.8568 17.5998 100.324 18.3153C101.792 19.0309 102.992 19.8738 103.926 20.8441C104.86 21.8022 105.545 22.8816 105.982 24.0823C106.431 25.283 106.661 26.5928 106.673 28.0118C106.661 30.4617 106.049 32.5357 104.836 34.2336C103.623 35.9316 101.889 37.2232 99.633 38.1086C97.3893 38.9939 94.6907 39.4366 91.5374 39.4366C88.2992 39.4366 85.4733 38.9576 83.0598 37.9994C80.6584 37.0413 78.7906 35.5677 77.4565 33.5787C76.1346 31.5775 75.4675 29.0185 75.4554 25.9015H85.0609C85.1216 27.0416 85.4066 27.9997 85.916 28.7759C86.4254 29.5521 87.1409 30.1403 88.0627 30.5406C88.9965 30.9408 90.1063 31.1409 91.3919 31.1409C92.4713 31.1409 93.3748 31.0075 94.1025 30.7407C94.8302 30.4739 95.382 30.104 95.758 29.631C96.134 29.158 96.328 28.6182 96.3402 28.0118C96.328 27.4418 96.1401 26.9446 95.7762 26.5201C95.4245 26.0835 94.8423 25.6953 94.0297 25.3558C93.2172 25.004 92.1196 24.6766 90.7369 24.3734L87.0257 23.5729C83.7268 22.8573 81.1253 21.6627 79.2212 19.989C77.3292 18.3032 76.3893 16.0049 76.4014 13.0941C76.3893 10.7291 77.0199 8.66127 78.2934 6.89056C79.579 5.10771 81.3558 3.71903 83.6237 2.72451C85.9038 1.73 88.5175 1.23274 91.4646 1.23274C94.4724 1.23274 97.0739 1.73606 99.2691 2.74271C101.464 3.74935 103.156 5.16835 104.345 6.99971C105.545 8.81894 106.152 10.9474 106.164 13.3852H96.4857ZM120.727 39V1.74213H136.809C139.574 1.74213 141.994 2.2879 144.068 3.37944C146.142 4.47098 147.755 6.00519 148.907 7.98209C150.059 9.95899 150.635 12.2694 150.635 14.9134C150.635 17.5816 150.041 19.892 148.852 21.8446C147.676 23.7973 146.02 25.3012 143.886 26.3563C141.763 27.4115 139.283 27.9391 136.445 27.9391H126.84V20.08H134.408C135.596 20.08 136.609 19.8738 137.446 19.4614C138.295 19.037 138.944 18.4366 139.392 17.6604C139.853 16.8842 140.084 15.9685 140.084 14.9134C140.084 13.8461 139.853 12.9365 139.392 12.1845C138.944 11.4204 138.295 10.8383 137.446 10.4381C136.609 10.0257 135.596 9.81952 134.408 9.81952H130.842V39H120.727ZM154.346 39V1.74213H181.198V9.89229H164.461V16.296H179.816V24.4461H164.461V30.8498H181.125V39H154.346ZM185.196 9.89229V1.74213H217.578V9.89229H206.372V39H196.402V9.89229H185.196Z" fill="#252525"/>
  <path d="M72.5544 20.8347C72.5544 31.0091 64.3064 39.2571 54.132 39.2571C43.9576 39.2571 35.7096 31.0091 35.7096 20.8347C35.7096 10.6603 43.9576 2.41229 54.132 2.41229C58.6384 2.41229 62.7652 4.02941 65.9667 6.7158L68.4902 9.29118C71.033 12.4498 72.5544 16.4636 72.5544 20.8347Z" fill="#FF0000" stroke="#FF0000" stroke-width="1.41723"/>
  <circle cx="54.1323" cy="20.8356" r="10.7689" fill="white" stroke="#FF0000" stroke-width="1.41723"/>
  <rect x="58.9062" y="12.8032" width="10.9264" height="3.84338" rx="1.92169" transform="rotate(-43.8278 58.9062 12.8032)" fill="white" stroke="white" stroke-width="1.41723"/>
  <rect x="1.00192" y="-0.0205014" width="10.9264" height="3.84338" rx="1.92169" transform="matrix(0.721425 0.692493 0.692493 -0.721425 58.1976 28.3104)" fill="white" stroke="white" stroke-width="1.41723"/>
  <rect x="46.373" y="15.5729" width="10.9264" height="3.84338" rx="1.92169" transform="rotate(-133.828 46.373 15.5729)" fill="white" stroke="white" stroke-width="1.41723"/>
  <rect x="0.0205014" y="1.00192" width="10.9264" height="3.84338" rx="1.92169" transform="matrix(-0.692493 0.721425 0.721425 0.692493 45.6644 25.5381)" fill="white" stroke="white" stroke-width="1.41723"/>
</svg>
